<?xml version="1.0" encoding="UTF-8"?>
<svg width="896px" height="896px" viewBox="0 0 896 896" version="1.1" xmlns="http://www.w3.org/2000/svg" xmlns:xlink="http://www.w3.org/1999/xlink">
    <!-- Generator: Sketch 44.1 (41455) - http://www.bohemiancoding.com/sketch -->
    <title>icon</title>
    <desc>Created with Sketch.</desc>
    <defs></defs>
    <g id="Page-1" stroke="none" stroke-width="1" fill="none" fill-rule="evenodd">
        <g id="icon" fill-rule="nonzero" fill="#000000">
            <path d="M448,0 C200.6,0 0,200.6 0,448 C0,695.4 200.6,896 448,896 C695.4,896 896,695.4 896,448 C896,200.6 695.4,0 448,0 Z M675,385.3 C674,389.5 671.5,395.7 668,403.1 L668.1,403.1 L667.7,403.8 C647.4,446.9 594.6,531.5 594.6,531.5 C594.6,531.5 594.5,531.3 594.3,531 L578.8,557.8 L653.3,557.8 L511.1,746 L543.4,618 L484.8,618 L505.2,533.3 C488.7,537.2 469.3,542.7 446.2,550.1 C446.2,550.1 415,568.3 356.3,515.1 C356.3,515.1 316.7,480.4 339.7,471.7 C349.5,468 387.1,463.3 416.7,459.4 C456.7,454 481.3,451.2 481.3,451.2 C481.3,451.2 358,453 328.7,448.5 C299.4,443.9 262.3,395.4 254.4,352.7 C254.4,352.7 242.2,329.3 280.7,340.4 C319.2,351.5 478.6,383.6 478.6,383.6 C478.6,383.6 271.2,320.3 257.4,304.9 C243.6,289.5 216.8,220.7 220.3,178.4 C220.3,178.4 221.8,167.9 232.7,170.7 C232.7,170.7 386,240.4 490.8,278.6 C595.6,316.5 686.7,335.9 675,385.3 Z" id="Shape"></path>
        </g>
    </g>
</svg>