<?xml version="1.0" encoding="UTF-8"?>
<svg width="1000px" height="1000px" viewBox="0 0 1000 1000" version="1.1" xmlns="http://www.w3.org/2000/svg" xmlns:xlink="http://www.w3.org/1999/xlink">
    <!-- Generator: Sketch 44.1 (41455) - http://www.bohemiancoding.com/sketch -->
    <title>icon</title>
    <desc>Created with Sketch.</desc>
    <defs></defs>
    <g id="Page-1" stroke="none" stroke-width="1" fill="none" fill-rule="evenodd">
        <g id="icon" fill-rule="nonzero" fill="#1296DB">
            <path d="M500,0 C223.883929,0 0,223.883929 0,500 C0,776.116071 223.883929,1000 500,1000 C776.116071,1000 1000,776.116071 1000,500 C1000,223.883929 776.116071,0 500,0 Z M753.348214,430.022321 C752.232143,434.709821 749.441964,441.629464 745.535714,449.888393 L745.647321,449.888393 L745.200893,450.669643 C722.544643,498.772321 663.616071,593.191964 663.616071,593.191964 C663.616071,593.191964 663.504464,592.96875 663.28125,592.633929 L645.982143,622.544643 L729.129464,622.544643 L570.424107,832.589286 L606.473214,689.732143 L541.071429,689.732143 L563.839286,595.200893 C545.424107,599.553571 523.772321,605.691964 497.991071,613.950893 C497.991071,613.950893 463.169643,634.263393 397.65625,574.888393 C397.65625,574.888393 353.459821,536.160714 379.129464,526.450893 C390.066964,522.321429 432.03125,517.075893 465.066964,512.723214 C509.709821,506.696429 537.165179,503.571429 537.165179,503.571429 C537.165179,503.571429 399.553571,505.580357 366.852679,500.558036 C334.151786,495.424107 292.745536,441.294643 283.928571,393.638393 C283.928571,393.638393 270.3125,367.522321 313.28125,379.910714 C356.25,392.299107 534.151786,428.125 534.151786,428.125 C534.151786,428.125 302.678571,357.477679 287.276786,340.290179 C271.875,323.102679 241.964286,246.316964 245.870536,199.107143 C245.870536,199.107143 247.544643,187.388393 259.709821,190.513393 C259.709821,190.513393 430.803571,268.303571 547.767857,310.9375 C664.732143,353.236607 766.40625,374.888393 753.348214,430.022321 Z" id="Shape"></path>
        </g>
    </g>
</svg>